<svg width="24" height="24" viewBox="0 0 24 24" fill="none" xmlns="http://www.w3.org/2000/svg">
<rect width="24" height="24" fill="#1E1E1E"/>
<g clip-path="url(#clip0_0_1)">
<rect width="24" height="24" fill="white"/>
<path d="M5.73633 7.9375L6.50977 8.08984C6.64258 8.08984 6.86914 8.20312 7.18945 8.42969H7.23633C7.24414 8.125 7.27148 7.97266 7.31836 7.97266C7.55273 8.05859 7.69336 8.10156 7.74023 8.10156H7.97461L8.16211 8.08984L8.18555 8.125L8.17383 8.19531V9.69531C8.17383 9.78125 8.14648 9.85156 8.0918 9.90625C8.1543 9.96875 8.18555 10.0273 8.18555 10.082C8.18555 10.1367 8.16211 10.2031 8.11523 10.2812L8.15039 10.4805C8.15039 10.5742 8.12695 10.6211 8.08008 10.6211L7.77539 10.5742H7.76367L7.59961 10.6211H7.57617C7.54492 10.6211 7.49414 10.4531 7.42383 10.1172C7.42383 10.0078 7.37695 9.91016 7.2832 9.82422C7.18164 9.67578 7.13086 9.57422 7.13086 9.51953L7.20117 9.49609V9.48438C7.08398 9.39062 7.01367 9.28516 6.99023 9.16797C6.66992 8.84766 6.39648 8.6875 6.16992 8.6875H6.08789C6.00195 8.6875 5.61133 8.76953 4.91602 8.93359C4.85352 8.98047 4.75195 9.12891 4.61133 9.37891C4.46289 9.57422 4.38867 9.76172 4.38867 9.94141C4.43555 10.4414 4.49805 10.6914 4.57617 10.6914C4.67773 10.957 4.79883 11.1172 4.93945 11.1719C4.96289 11.2109 5.05664 11.25 5.2207 11.2891C5.33008 11.3906 5.56055 11.5156 5.91211 11.6641C5.91211 11.6953 5.95117 11.7148 6.0293 11.7227L6.16992 11.6758C6.23242 11.6914 6.26367 11.707 6.26367 11.7227V11.7344L6.2168 11.7812V11.8164C6.32617 11.9492 6.45898 12.0156 6.61523 12.0156V12.0039L6.39258 11.8164V11.8047C6.46289 11.8047 6.71289 11.9414 7.14258 12.2148C7.79102 12.8164 8.11523 13.1992 8.11523 13.3633C8.22461 13.8398 8.2793 14.1367 8.2793 14.2539C8.20898 14.8477 8.14258 15.1445 8.08008 15.1445L7.79883 15.6367C7.25977 15.9648 6.94336 16.1289 6.84961 16.1289C5.95117 15.9336 5.35352 15.7773 5.05664 15.6602C4.44727 15.0898 4.14258 14.7539 4.14258 14.6523L4.0957 14.6172L4.07227 14.6289V14.6875V15.3438C4.07227 15.3984 3.93164 15.4258 3.65039 15.4258H3.43945L3.26367 15.4844C3.20898 15.4844 3.13867 15.4414 3.05273 15.3555V15.3438L3.11133 15.25C3.16602 13.9375 3.23242 13.2812 3.31055 13.2812H3.33398L3.54492 13.3164C3.58398 13.3164 3.62305 13.3047 3.66211 13.2812L3.81445 13.3164L3.89648 13.293H3.94336C3.97461 13.3086 4.04492 13.4219 4.1543 13.6328C4.45117 14.0078 4.7168 14.3672 4.95117 14.7109C4.98242 14.7109 5.08008 14.8164 5.24414 15.0273L5.9707 15.3438H6.18164V15.3906H6.20508L6.26367 15.3555H6.28711C6.34961 15.4023 6.4082 15.4258 6.46289 15.4258H6.5332C6.74414 15.418 6.84961 15.3906 6.84961 15.3438V15.3203H6.61523L6.47461 15.3086C6.48242 15.2773 6.75977 15.2188 7.30664 15.1328C7.43164 15.1328 7.55273 14.9141 7.66992 14.4766C7.66992 14.3359 7.70508 14.2344 7.77539 14.1719V14.125C7.64258 13.7109 7.49414 13.4414 7.33008 13.3164C7.23633 13.1523 6.88086 12.9609 6.26367 12.7422C5.85742 12.5859 5.5293 12.4023 5.2793 12.1914C4.91211 12.082 4.70117 11.9609 4.64648 11.8281C4.59961 11.7266 4.41992 11.5586 4.10742 11.3242C3.9668 10.8945 3.81445 10.5625 3.65039 10.3281C3.56445 9.98438 3.52148 9.62109 3.52148 9.23828C3.58398 8.98047 3.86523 8.625 4.36523 8.17188C4.6543 8.01562 5.11133 7.9375 5.73633 7.9375ZM4.36523 8.34766H4.50586C4.56836 8.34766 4.85742 8.28125 5.37305 8.14844C5.56055 8.11719 5.6543 8.08594 5.6543 8.05469L5.60742 8.04297C4.7793 8.11328 4.36523 8.21484 4.36523 8.34766ZM7.45898 8.19531L7.44727 8.24219V8.27734C7.44727 8.32422 7.47852 8.34766 7.54102 8.34766H7.74023V8.33594C7.66211 8.24219 7.56836 8.19531 7.45898 8.19531ZM4.7168 8.78125H4.74023C4.81836 8.78125 5.00195 8.71094 5.29102 8.57031L5.60742 8.45312V8.46484L5.57227 8.53516H5.66602L5.73633 8.51172V8.46484L5.71289 8.42969V8.35938H5.68945C5.37695 8.45312 5.11914 8.55078 4.91602 8.65234C4.7832 8.67578 4.7168 8.71875 4.7168 8.78125ZM6.69727 8.45312H6.49805C6.49805 8.46875 6.61523 8.50781 6.84961 8.57031H6.9082L6.93164 8.55859V8.53516C6.9082 8.48047 6.83008 8.45312 6.69727 8.45312ZM7.50586 8.46484L7.48242 8.51172V8.53516L7.49414 8.60547H7.5293L7.56445 8.57031V8.51172L7.5293 8.46484H7.50586ZM4.42383 8.62891V8.64062C4.42383 8.66406 4.43945 8.67578 4.4707 8.67578C4.50977 8.66016 4.53711 8.63281 4.55273 8.59375V8.57031C4.48242 8.57031 4.43945 8.58984 4.42383 8.62891ZM7.08398 8.6875L7.14258 8.74609H7.20117L7.23633 8.71094V8.67578C7.23633 8.65234 7.20508 8.62891 7.14258 8.60547C7.10352 8.62109 7.08398 8.64844 7.08398 8.6875ZM7.68164 8.85156L7.7168 8.875V8.88672L7.66992 8.94531V8.98047C7.66992 8.99609 7.70117 9.01562 7.76367 9.03906C7.7793 9.10156 7.80273 9.13672 7.83398 9.14453H7.86914V9.09766L7.85742 9.0625V9.01562H7.89258L7.95117 9.0625H7.97461L7.98633 8.99219V8.96875C7.93164 8.75 7.89258 8.64062 7.86914 8.64062H7.79883C7.7207 8.67188 7.68164 8.74219 7.68164 8.85156ZM4.35352 9.14453L4.42383 9.21484H4.44727C4.54102 9.19922 4.62695 9.14844 4.70508 9.0625L4.66992 9.03906H4.54102C4.45508 9.03906 4.39258 9.07422 4.35352 9.14453ZM3.83789 9.05078L3.80273 9.08594V9.09766H3.86133V9.05078H3.83789ZM4.1543 9.60156V9.61328H4.17773C4.31836 9.48047 4.38867 9.36328 4.38867 9.26172L4.35352 9.22656C4.25977 9.22656 4.19336 9.35156 4.1543 9.60156ZM7.97461 9.26172H7.91602V9.28516C7.93945 9.33203 7.96289 9.35547 7.98633 9.35547V9.30859L7.97461 9.26172ZM7.85742 9.34375L7.82227 9.37891H7.85742V9.34375ZM7.66992 9.40234L7.62305 9.4375V9.44922L7.66992 9.49609H7.7168L7.76367 9.44922V9.4375L7.7168 9.40234H7.66992ZM7.93945 9.51953L7.89258 9.55469V9.63672L7.9043 9.71875H7.93945L7.97461 9.51953H7.93945ZM7.69336 9.71875H7.66992V9.74219L7.69336 9.77734H7.74023V9.74219L7.69336 9.71875ZM7.6582 10.0352V10.2227L7.68164 10.2461H7.69336C7.75586 10.2461 7.79102 10.2188 7.79883 10.1641C7.75977 10.0703 7.74023 9.99219 7.74023 9.92969H7.7168C7.67773 9.94531 7.6582 9.98047 7.6582 10.0352ZM7.7168 10.4102L7.68164 10.4453L7.74023 10.4805H7.77539L7.78711 10.4453L7.74023 10.4102H7.7168ZM4.10742 10.9141V10.9961L4.1543 11.043H4.24805V10.9961C4.19336 10.9414 4.14648 10.9141 4.10742 10.9141ZM4.33008 11.2305H4.31836V11.2891C4.48242 11.4062 4.5918 11.4648 4.64648 11.4648H4.69336V11.418C4.58398 11.3398 4.46289 11.2773 4.33008 11.2305ZM5.79492 11.6289H5.68945C5.69727 11.6602 5.72852 11.6758 5.7832 11.6758H5.83008V11.6641L5.79492 11.6289ZM5.91211 11.8047L5.87695 11.8281C5.9082 11.875 6.03711 11.9492 6.26367 12.0508V12.0039C6.1543 11.9023 6.03711 11.8359 5.91211 11.8047ZM6.18164 12.5078H6.12305V12.5664C6.22461 12.6133 6.34961 12.6406 6.49805 12.6484C6.49805 12.6797 6.52539 12.6953 6.58008 12.6953H6.67383V12.6836C6.67383 12.6133 6.50977 12.5547 6.18164 12.5078ZM6.9668 12.8242H6.93164V12.8594L6.9668 12.8945H6.99023V12.8594L6.9668 12.8242ZM3.43945 14.0312H3.39258C3.35352 14.1484 3.33398 14.2969 3.33398 14.4766L3.35742 14.6289H3.36914C3.43945 14.6289 3.47461 14.5977 3.47461 14.5352C3.45117 14.3555 3.43945 14.1875 3.43945 14.0312ZM3.68555 14.3711C3.64648 14.5039 3.60352 14.5898 3.55664 14.6289L3.60352 14.7578V15.0625V15.1328C3.60352 15.1875 3.61914 15.2148 3.65039 15.2148H3.7207L3.75586 15.1797V15.1328C3.75586 14.625 3.73242 14.3711 3.68555 14.3711ZM4.33008 14.6641H4.31836V14.6875C4.34961 14.8125 4.4082 14.875 4.49414 14.875V14.8516C4.43945 14.7266 4.38477 14.6641 4.33008 14.6641ZM3.36914 14.9219L3.39258 14.9453H3.4043C3.42773 14.9453 3.44727 14.8672 3.46289 14.7109L3.43945 14.6875C3.4082 14.6875 3.38477 14.7656 3.36914 14.9219ZM4.74023 14.7695H4.7168V14.7812C4.7793 14.8984 4.8418 14.957 4.9043 14.957V14.9219C4.8418 14.8516 4.78711 14.8008 4.74023 14.7695ZM7.77539 14.9688L7.7168 15.0273L7.76367 15.0742H7.82227L7.86914 15.0273V15.0039L7.83398 14.9688H7.77539ZM5.43164 15.2383V15.25C5.44727 15.2891 5.47461 15.3086 5.51367 15.3086C5.49805 15.2617 5.4707 15.2383 5.43164 15.2383ZM4.86914 15.2617L4.78711 15.25V15.2617C4.86523 15.4336 5.06055 15.5664 5.37305 15.6602C5.63086 15.7539 5.99414 15.8516 6.46289 15.9531C6.55664 16.0156 6.63867 16.0508 6.70898 16.0586H6.81445C7.00977 16.0039 7.10742 15.9336 7.10742 15.8477L6.05273 15.7656C5.43555 15.5703 5.04102 15.4023 4.86914 15.2617ZM6.93164 15.6016V15.625L6.9668 15.6484H7.02539C7.30664 15.6484 7.46289 15.6094 7.49414 15.5312L7.44727 15.5078H7.37695C7.29102 15.5078 7.14258 15.5391 6.93164 15.6016ZM6.58008 15.8945V15.8477H6.60352C6.6582 15.8477 6.68555 15.8633 6.68555 15.8945H6.65039H6.58008ZM14.8418 7.73828H14.959C15.0449 7.73828 15.0879 7.83984 15.0879 8.04297L15.1113 8.07812L15.123 8.08984L15.1348 8.13672H15.1465C15.0762 8.35547 14.9629 8.46484 14.8066 8.46484C14.8066 8.50391 14.666 8.52734 14.3848 8.53516L14.3613 8.57031C14.5879 11.4922 14.7012 13.4258 14.7012 14.3711L14.7363 15.5078C14.7363 15.7969 14.6816 15.9414 14.5723 15.9414C14.5332 15.9492 14.4199 15.9531 14.2324 15.9531H13.8574C13.6621 15.9531 13.5645 15.9141 13.5645 15.8359C13.5566 15.6875 13.4551 15.4492 13.2598 15.1211C13.1582 14.5742 13.0332 14.1992 12.8848 13.9961C12.8848 13.9727 12.8262 13.8945 12.709 13.7617C12.3027 13.082 11.9238 12.3867 11.5723 11.6758C11.502 11.5898 11.334 11.2656 11.0684 10.7031C10.8418 10.2969 10.6074 9.94141 10.3652 9.63672H10.3184V9.92969C10.3184 10.1641 10.3418 10.6484 10.3887 11.3828C10.3887 11.9297 10.3262 12.7891 10.2012 13.9609V14.125L10.2715 14.3711L10.2363 15.2148L10.2949 15.5195L10.2363 15.7539V15.8008H10.2012C10.1621 15.7617 10.123 15.7422 10.084 15.7422H10.0137V15.7539C10.0449 15.8086 10.0605 15.8555 10.0605 15.8945V15.9531C10.1152 15.9531 10.1543 15.9336 10.1777 15.8945C10.2246 15.918 10.248 15.9492 10.248 15.9883C10.248 16.1211 10.1934 16.1875 10.084 16.1875L9.08789 16.2109C8.86914 16.1797 8.75977 16.0898 8.75977 15.9414C8.7207 15.668 8.68555 15.4727 8.6543 15.3555C8.6543 15.3164 8.8418 15.2227 9.2168 15.0742L9.22852 15.0625V14.6758C9.22852 14.582 9.25195 14.5156 9.29883 14.4766V14.4414C9.24414 14.4414 9.2168 14.1836 9.2168 13.668V13.5273C9.38086 12.0195 9.46289 10.2422 9.46289 8.19531C9.4707 7.95312 9.49414 7.83203 9.5332 7.83203C9.5332 7.80078 9.69336 7.77734 10.0137 7.76172H10.1426C10.3066 7.76172 10.5293 8.00391 10.8105 8.48828C11.1387 8.91016 11.3691 9.21484 11.502 9.40234L12.0059 10.2461C12.3887 10.6914 12.7051 11.3008 12.9551 12.0742C13.2051 12.6133 13.3652 12.8828 13.4355 12.8828C13.5371 12.7812 13.5879 12.625 13.5879 12.4141L13.5645 11.9336L13.5996 10.3047C13.5527 9.99219 13.5293 9.76172 13.5293 9.61328V9.56641C13.5293 9.12109 13.5566 8.81641 13.6113 8.65234C13.6113 8.58984 13.4082 8.55859 13.002 8.55859L12.9668 8.51172V8.125C12.9668 7.875 13.0762 7.75 13.2949 7.75C13.8887 7.74219 14.4043 7.73828 14.8418 7.73828ZM14.9473 7.86719H14.8184V7.90234L14.9121 7.92578H14.9238L14.959 7.87891L14.9473 7.86719ZM10.0605 7.92578L10.0254 7.9375C10.0488 8.03906 10.0996 8.08984 10.1777 8.08984L10.2012 8.05469V7.97266L10.1426 7.92578H10.0605ZM14.5957 8.17188H14.5488V8.21875H14.5957V8.17188ZM13.2246 8.27734L13.2012 8.3125L13.248 8.35938H13.2715L13.4824 8.33594C13.4668 8.29688 13.4355 8.27734 13.3887 8.27734H13.2246ZM13.7754 8.75781V8.80469C13.7988 8.85938 13.8262 8.88672 13.8574 8.88672L13.8926 8.85156V8.6875L13.8574 8.65234H13.8457C13.7988 8.66016 13.7754 8.69531 13.7754 8.75781ZM10.002 9.41406L10.0137 9.4375H10.0254C10.0488 9.4375 10.0605 9.32422 10.0605 9.09766V8.80469C10.0215 8.80469 10.002 9.00781 10.002 9.41406ZM10.3418 8.93359L10.3066 8.96875V9.08594C10.3066 9.14844 10.334 9.22266 10.3887 9.30859H10.4355C10.3965 9.05859 10.3691 8.93359 10.3535 8.93359H10.3418ZM10.7754 9.49609H10.752V9.51953C10.9004 9.89453 11.0332 10.1914 11.1504 10.4102C11.1973 10.4648 11.2207 10.5039 11.2207 10.5273H11.2676V10.4922C11.2129 10.2031 11.1191 9.96484 10.9863 9.77734L10.7754 9.49609ZM11.5371 10.1172H11.4785V10.1523C11.5098 10.293 11.5996 10.4531 11.748 10.6328H11.7832C11.6738 10.2891 11.5918 10.1172 11.5371 10.1172ZM11.4082 10.7148L11.3379 10.6797L11.3262 10.6914V10.7031C11.4355 11.0156 11.6738 11.4805 12.041 12.0977H12.0645C12.041 11.9727 11.8223 11.5117 11.4082 10.7148ZM12.3105 11.2891H12.2988C12.3848 11.5312 12.4746 11.707 12.5684 11.8164L12.5918 11.8047C12.4512 11.4844 12.3574 11.3125 12.3105 11.2891ZM12.6855 11.9688H12.6621V11.9922C12.7168 12.2344 12.7949 12.4102 12.8965 12.5195H12.9199C12.9199 12.4883 12.8418 12.3047 12.6855 11.9688ZM12.1348 12.2969L12.123 12.3086C12.2246 12.5977 12.2988 12.7422 12.3457 12.7422L12.3809 12.707V12.6836C12.3809 12.6367 12.2988 12.5078 12.1348 12.2969ZM9.67383 13.5742H9.68555C9.73242 13.5742 9.75977 13.418 9.76758 13.1055V12.9883H9.74414C9.73633 12.9883 9.71289 13.1836 9.67383 13.5742ZM12.7793 13.3633H12.7207V13.4453L12.8613 13.6211H12.8848V13.4922L12.7793 13.4102V13.3633ZM14.0215 13.7734C14.0215 13.8906 14.0371 13.9492 14.0684 13.9492C14.0996 13.9414 14.1152 13.9062 14.1152 13.8438L14.1035 13.5273H14.0801C14.0488 13.5273 14.0293 13.6094 14.0215 13.7734ZM9.5918 13.8906V14.0547H9.63867C9.66211 14.0547 9.68555 13.9922 9.70898 13.8672C9.70117 13.7969 9.68164 13.7617 9.65039 13.7617C9.61133 13.7773 9.5918 13.8203 9.5918 13.8906ZM14.373 14.5352H14.3379V14.582H14.373V14.5352ZM13.3184 14.6875H13.2715C13.2715 14.7578 13.3262 14.8359 13.4355 14.9219V14.9102C13.4355 14.8867 13.3965 14.8125 13.3184 14.6875ZM13.9746 14.875H13.9629V14.8984L13.9746 14.9219H14.0215V14.8984L13.9746 14.875ZM9.65039 15.0039H9.63867V15.0625L9.65039 15.0977H9.67383L9.70898 15.0625V15.0508L9.65039 15.0039ZM13.5527 15.168H13.5176V15.1914L13.5527 15.2383H13.5645L13.5527 15.168ZM9.08789 15.25L9.01758 15.2852V15.3203H9.22852L9.25195 15.3086V15.2852L9.22852 15.25H9.08789ZM14.5957 15.3672H14.5723V15.4258L14.6074 15.4727H14.6309V15.4258L14.5957 15.3672ZM9.61523 15.5312L9.56836 15.5781V15.6016H9.5918L9.63867 15.5547V15.5312H9.61523ZM8.8418 15.625C8.86523 15.6641 8.90039 15.6836 8.94727 15.6836H8.98242L9.12305 15.6484V15.6016L8.94727 15.5781C8.87695 15.5938 8.8418 15.6094 8.8418 15.625ZM14.373 15.625H14.3379V15.6484L14.373 15.625ZM9.06445 15.9766L9.04102 16.0117C9.04883 16.043 9.07617 16.0586 9.12305 16.0586C9.19336 16.0508 9.22852 16.0352 9.22852 16.0117L9.20508 15.9766H9.06445ZM18.4277 7.9375L18.6855 7.90234C18.9434 7.90234 19.3457 7.99609 19.8926 8.18359C20.1816 8.33203 20.3262 8.42969 20.3262 8.47656C20.5918 8.74219 20.7246 8.94922 20.7246 9.09766L20.9121 9.78906C20.834 10.0859 20.666 10.5117 20.4082 11.0664C20.0801 11.3398 19.5957 11.6641 18.9551 12.0391C18.4316 12.5234 18.0879 12.7734 17.9238 12.7891L17.4316 13.2344C16.7285 13.8438 16.3691 14.1641 16.3535 14.1953C16.2832 14.3438 16.2207 14.5352 16.166 14.7695V14.793C16.166 14.8555 16.3574 14.8984 16.7402 14.9219V14.9688L16.3652 14.9922V15.0391C17.0449 15.1562 17.502 15.2148 17.7363 15.2148C17.7207 15.1914 17.4395 15.1133 16.8926 14.9805V14.9453H16.9043C17.0527 14.9453 17.3652 15.0039 17.8418 15.1211L18.498 15.168L19.0605 15.1094H19.3535C19.8691 15.1406 20.1504 15.2109 20.1973 15.3203L20.5488 15.4258L20.6191 15.4727V15.5195L20.4316 15.5664V15.5781L20.4785 15.6367H20.502L20.666 15.6133V15.6367C20.6504 15.9805 20.627 16.1523 20.5957 16.1523L19.2246 16.1055H18.9434C18.748 16.1055 18.4824 16.125 18.1465 16.1641C16.9668 16.0234 16.1465 15.9531 15.6855 15.9531C15.5449 15.9219 15.4746 15.8516 15.4746 15.7422C15.4199 15.6016 15.3926 15.4258 15.3926 15.2148V14.8633C15.3926 14.1836 15.4707 13.7539 15.627 13.5742L15.9199 13.3867C15.9668 13.3008 15.9902 13.2305 15.9902 13.1758C16.4902 12.7695 16.7559 12.5664 16.7871 12.5664C16.998 12.4883 17.2871 12.2891 17.6543 11.9688H17.7129C17.6113 12.0938 17.5293 12.1562 17.4668 12.1562V12.2031H17.5371C17.6387 12.1484 17.7402 12.0625 17.8418 11.9453V11.9219H17.7949V11.8867L18.6387 11.3594C19.0684 11.0625 19.4082 10.7891 19.6582 10.5391C19.8457 10.3281 19.9668 10.0508 20.0215 9.70703C20.0215 9.40234 19.8926 9.17188 19.6348 9.01562C19.5488 8.98438 19.1973 8.94141 18.5801 8.88672C18.5801 8.87891 18.5176 8.87109 18.3926 8.86328C18.127 8.86328 17.877 9.01953 17.6426 9.33203C17.5801 9.47266 17.5488 9.57812 17.5488 9.64844V9.73047H17.5723C17.5723 9.80078 17.4434 9.85156 17.1855 9.88281L16.6934 9.95312V9.96484L16.623 9.95312H16.5293L16.2363 9.98828L16.2129 9.94141C16.3223 9.40234 16.4434 9.06641 16.5762 8.93359C17.0215 8.52734 17.334 8.31641 17.5137 8.30078C17.6465 8.18359 17.9512 8.0625 18.4277 7.9375ZM18.8965 8.01953H18.7793V8.04297L18.8496 8.13672H18.9551L19.002 8.07812V8.06641C18.9941 8.03516 18.959 8.01953 18.8965 8.01953ZM18.1465 8.19531V8.21875H18.1582C18.4785 8.21875 18.6387 8.18359 18.6387 8.11328L18.5801 8.06641H18.4395C18.2441 8.11328 18.1465 8.15625 18.1465 8.19531ZM19.6113 8.14844H19.5996V8.17188C19.5996 8.21875 19.7012 8.26562 19.9043 8.3125V8.30078C19.9043 8.25391 19.8066 8.20312 19.6113 8.14844ZM17.7129 8.37109V8.40625H17.8652L17.9121 8.35938V8.34766L17.8418 8.33594C17.7559 8.35156 17.7129 8.36328 17.7129 8.37109ZM17.877 8.81641L17.8418 8.86328V8.88672H17.9121L17.9473 8.83984V8.81641H17.877ZM19.916 8.83984L19.8926 8.86328V8.88672C19.9238 8.94141 19.9668 8.96875 20.0215 8.96875H20.0332C20.0566 8.96875 20.0684 8.95312 20.0684 8.92188C20.0684 8.88281 20.0254 8.85547 19.9395 8.83984H19.916ZM20.0918 9.01562V9.03906C20.2324 9.05469 20.3027 9.11719 20.3027 9.22656L20.373 9.30859V9.22656C20.373 9.05469 20.3184 8.96875 20.209 8.96875C20.1387 8.96875 20.0996 8.98438 20.0918 9.01562ZM17.502 9.25L17.5254 9.27344H17.5371C17.6543 9.21094 17.7129 9.14844 17.7129 9.08594V9.07422H17.666C17.6348 9.07422 17.5801 9.13281 17.502 9.25ZM17.1738 9.56641H17.1152V9.61328L17.1621 9.625H17.1738V9.56641ZM20.5957 9.96484L20.5488 10.0234V10.0586H20.5723L20.6074 10.0234V9.96484H20.5957ZM20.3262 10.4336H20.2676V10.4922C20.3223 10.4922 20.3496 10.5156 20.3496 10.5625H20.3848V10.4922L20.3262 10.4336ZM20.1152 10.8555L20.127 10.8789V10.8906C20.1738 10.8672 20.2207 10.8203 20.2676 10.75V10.7266H20.2441C20.1895 10.7578 20.1465 10.8008 20.1152 10.8555ZM19.7988 11.0898H19.8223L19.9512 11.0664C19.9512 11.0039 19.9238 10.9727 19.8691 10.9727C19.8223 10.9805 19.7988 11.0195 19.7988 11.0898ZM19.7754 11.3125V11.3359C19.9238 11.3203 20.0605 11.2383 20.1855 11.0898L20.1621 11.0664C19.9824 11.1602 19.8535 11.2422 19.7754 11.3125ZM19.248 11.5352L19.2129 11.5469V11.5938H19.2363L19.2715 11.5586L19.248 11.5469V11.5352ZM17.4199 12.9414V12.9766H17.4551C17.502 12.9766 17.6074 12.9062 17.7715 12.7656C17.8105 12.7656 17.8496 12.7188 17.8887 12.625L17.9121 12.6133V12.5781H17.877C17.7832 12.5781 17.6309 12.6992 17.4199 12.9414ZM16.6816 12.8828V12.918H16.6934C16.7949 12.918 16.877 12.8398 16.9395 12.6836H16.8809C16.748 12.793 16.6816 12.8594 16.6816 12.8828ZM16.2949 13.0938H16.1426L16.1543 13.2109C16.0449 13.3203 15.9902 13.3906 15.9902 13.4219H16.0371C16.1777 13.3438 16.2754 13.2461 16.3301 13.1289V13.1055L16.2949 13.0938ZM17.1738 13.2109L17.1152 13.2461V13.2812H17.1621L17.209 13.2344V13.2109H17.1738ZM16.2363 13.8789V13.9258H16.2715C16.3574 13.8633 16.4004 13.8008 16.4004 13.7383V13.7266H16.3652C16.2793 13.7734 16.2363 13.8242 16.2363 13.8789ZM15.9199 15.1328L15.8848 15.168V15.2148L15.9199 15.2617L15.9434 15.2148V15.168L15.9199 15.1328ZM16.2363 15.168L16.1895 15.2031L16.2129 15.2148H16.3652V15.1797L16.2832 15.168H16.2363ZM19.4238 15.2617L19.3418 15.2734V15.2852L19.3887 15.332H19.541L19.5762 15.3086V15.2734L19.4238 15.2617ZM15.6035 15.4961L15.5566 15.5195V15.5312L15.5918 15.5664H15.6035L15.6387 15.5312L15.6035 15.4961ZM15.8496 15.7422V15.7539L15.9434 15.7656C16.0605 15.75 16.1191 15.7344 16.1191 15.7188L16.1074 15.6953H15.9434C15.8809 15.7109 15.8496 15.7266 15.8496 15.7422ZM19.6465 15.8711H19.7754C19.8848 15.8555 19.9395 15.8359 19.9395 15.8125L19.9043 15.7656H19.834C19.7949 15.7656 19.7324 15.8008 19.6465 15.8711ZM20.0684 15.9414L20.1152 15.9648H20.2441C20.3613 15.9648 20.4199 15.9453 20.4199 15.9062V15.8945C20.4199 15.8711 20.4043 15.8594 20.373 15.8594C20.1855 15.8672 20.084 15.8945 20.0684 15.9414Z" fill="#1E1E1E"/>
</g>
<defs>
<clipPath id="clip0_0_1">
<rect width="24" height="24" fill="white"/>
</clipPath>
</defs>
</svg>
