<?xml version="1.0" encoding="UTF-8"?>
<!DOCTYPE svg PUBLIC "-//W3C//DTD SVG 1.1//EN" "http://www.w3.org/Graphics/SVG/1.1/DTD/svg11.dtd">
<svg xmlns="http://www.w3.org/2000/svg" version="1.1" width="512px" height="512px" style="shape-rendering:geometricPrecision; text-rendering:geometricPrecision; image-rendering:optimizeQuality; fill-rule:evenodd; clip-rule:evenodd" xmlns:xlink="http://www.w3.org/1999/xlink">
<g><path style="opacity:0.951" fill="#000000" d="M 248.5,7.5 C 263.367,5.01154 273.534,10.6782 279,24.5C 281.914,38.3362 277.081,48.3362 264.5,54.5C 263.501,65.4798 263.168,76.4798 263.5,87.5C 258.167,87.5 252.833,87.5 247.5,87.5C 247.832,76.4798 247.499,65.4798 246.5,54.5C 231.131,45.887 227.297,33.5537 235,17.5C 238.579,12.7307 243.079,9.39738 248.5,7.5 Z M 252.5,24.5 C 261.85,24.3654 264.517,28.532 260.5,37C 251.956,40.3224 248.123,37.4891 249,28.5C 249.69,26.6498 250.856,25.3164 252.5,24.5 Z"/></g>
<g><path style="opacity:0.924" fill="#000000" d="M 94.5,72.5 C 116.225,74.6361 124.725,86.3027 120,107.5C 127.877,115.042 135.377,122.876 142.5,131C 139.549,134.954 136.216,138.621 132.5,142C 131.5,142.667 130.5,142.667 129.5,142C 122.167,134.667 114.833,127.333 107.5,120C 90.0058,124.95 78.5058,118.783 73,101.5C 71.6467,85.3706 78.8134,75.7039 94.5,72.5 Z M 95.5,89.5 C 103.339,90.1804 105.839,94.1804 103,101.5C 96.3914,106.377 91.8914,104.877 89.5,97C 90.2741,93.4046 92.2741,90.9046 95.5,89.5 Z"/></g>
<g><path style="opacity:0.925" fill="#000000" d="M 411.5,72.5 C 433.838,74.8407 442.005,86.8407 436,108.5C 427.974,120.286 417.141,124.12 403.5,120C 396.167,127.333 388.833,134.667 381.5,142C 380.5,142.667 379.5,142.667 378.5,142C 375.333,138.833 372.167,135.667 369,132.5C 368.333,131.5 368.333,130.5 369,129.5C 376.333,122.167 383.667,114.833 391,107.5C 386.542,89.0704 393.375,77.4038 411.5,72.5 Z M 412.5,89.5 C 420.349,90.2021 422.849,94.2021 420,101.5C 413.373,106.375 408.873,104.875 406.5,97C 406.916,93.0971 408.916,90.5971 412.5,89.5 Z"/></g>
<g><path style="opacity:0.946" fill="#000000" d="M 237.5,103.5 C 302.135,98.9516 351.969,123.618 387,177.5C 409.804,219.073 413.804,262.406 399,307.5C 382.544,349.623 353.544,379.623 312,397.5C 311.667,417.833 311.333,438.167 311,458.5C 301.34,491.149 279.506,505.982 245.5,503C 221.448,497.281 206.281,482.448 200,458.5C 199.667,438.167 199.333,417.833 199,397.5C 138.122,369.611 105.955,322.111 102.5,255C 105.371,193.885 133.371,148.552 186.5,119C 202.851,111.269 219.851,106.102 237.5,103.5 Z M 252.5,119.5 C 303.629,120.472 343.129,142.138 371,184.5C 393.203,223.561 396.536,264.227 381,306.5C 364.695,344.238 337.195,370.072 298.5,384C 297.667,384.833 296.833,385.667 296,386.5C 295.5,393.492 295.334,400.492 295.5,407.5C 268.833,407.5 242.167,407.5 215.5,407.5C 215.666,400.492 215.5,393.492 215,386.5C 205.64,381.57 196.14,376.736 186.5,372C 144.064,344.826 121.731,305.826 119.5,255C 122.999,195.201 151.999,153.201 206.5,129C 221.489,123.436 236.822,120.27 252.5,119.5 Z M 217.5,223.5 C 219.124,223.36 220.29,224.027 221,225.5C 223.813,235.436 226.313,245.436 228.5,255.5C 222.132,255.83 215.798,255.496 209.5,254.5C 212.639,244.275 215.306,233.942 217.5,223.5 Z M 215.5,423.5 C 242.167,423.5 268.833,423.5 295.5,423.5C 295.5,431.5 295.5,439.5 295.5,447.5C 268.833,447.5 242.167,447.5 215.5,447.5C 215.5,439.5 215.5,431.5 215.5,423.5 Z M 219.5,464.5 C 243.33,463.337 267.33,463.17 291.5,464C 277.638,486.552 258.638,492.219 234.5,481C 228.213,476.552 223.213,471.052 219.5,464.5 Z"/></g>
<g><path style="opacity:0.948" fill="#000000" d="M 206.5,207.5 C 214.84,207.334 223.173,207.5 231.5,208C 232.667,209.167 233.833,210.333 235,211.5C 242.784,242.137 250.95,272.637 259.5,303C 253.472,303.83 247.472,303.664 241.5,302.5C 238.361,292.275 235.694,281.942 233.5,271.5C 224.161,271.334 214.827,271.5 205.5,272C 202.132,282.306 199.465,292.806 197.5,303.5C 191.5,303.5 185.5,303.5 179.5,303.5C 187.173,273.143 195.006,242.81 203,212.5C 203.997,210.677 205.164,209.01 206.5,207.5 Z M 217.5,223.5 C 215.306,233.942 212.639,244.275 209.5,254.5C 215.798,255.496 222.132,255.83 228.5,255.5C 226.313,245.436 223.813,235.436 221,225.5C 220.29,224.027 219.124,223.36 217.5,223.5 Z"/></g>
<g><path style="opacity:0.967" fill="#000000" d="M 274.5,207.5 C 293.5,207.5 312.5,207.5 331.5,207.5C 331.5,212.833 331.5,218.167 331.5,223.5C 324.833,223.5 318.167,223.5 311.5,223.5C 311.5,244.833 311.5,266.167 311.5,287.5C 318.167,287.5 324.833,287.5 331.5,287.5C 331.5,292.833 331.5,298.167 331.5,303.5C 312.5,303.5 293.5,303.5 274.5,303.5C 274.5,298.167 274.5,292.833 274.5,287.5C 281.167,287.5 287.833,287.5 294.5,287.5C 294.5,266.167 294.5,244.833 294.5,223.5C 287.833,223.5 281.167,223.5 274.5,223.5C 274.5,218.167 274.5,212.833 274.5,207.5 Z"/></g>
<g><path style="opacity:0.951" fill="#000000" d="M 24.5,231.5 C 38.329,229.081 48.329,234.081 54.5,246.5C 65.4798,247.499 76.4798,247.832 87.5,247.5C 87.5,252.833 87.5,258.167 87.5,263.5C 76.4798,263.168 65.4798,263.501 54.5,264.5C 45.887,279.869 33.5537,283.703 17.5,276C 6.75662,266.209 4.58996,254.709 11,241.5C 14.5795,236.731 19.0795,233.397 24.5,231.5 Z M 28.5,248.5 C 37.8504,248.365 40.517,252.532 36.5,261C 27.9562,264.322 24.1229,261.489 25,252.5C 25.6897,250.65 26.8564,249.316 28.5,248.5 Z"/></g>
<g><path style="opacity:0.951" fill="#000000" d="M 472.5,231.5 C 485.822,229.08 495.656,233.746 502,245.5C 506.925,261.477 501.758,272.644 486.5,279C 472.664,281.914 462.664,277.081 456.5,264.5C 445.52,263.501 434.52,263.168 423.5,263.5C 423.5,258.167 423.5,252.833 423.5,247.5C 434.52,247.832 445.52,247.499 456.5,246.5C 459.966,239.363 465.299,234.363 472.5,231.5 Z M 476.5,248.5 C 485.85,248.365 488.517,252.532 484.5,261C 475.956,264.322 472.123,261.489 473,252.5C 473.69,250.65 474.856,249.316 476.5,248.5 Z"/></g>
<g><path style="opacity:0.922" fill="#000000" d="M 129.5,368.5 C 134.863,371.022 139.197,374.855 142.5,380C 135.377,388.124 127.877,395.958 120,403.5C 123.899,415.478 121.066,425.645 111.5,434C 93.4935,442.743 80.6601,437.909 73,419.5C 71.3452,401.818 79.3452,391.818 97,389.5C 100.597,389.95 104.097,390.45 107.5,391C 115.036,383.632 122.369,376.132 129.5,368.5 Z M 94.5,406.5 C 100.247,405.866 103.58,408.366 104.5,414C 104.011,418.489 101.511,420.989 97,421.5C 88.2696,417.611 87.4363,412.611 94.5,406.5 Z"/></g>
<g><path style="opacity:0.923" fill="#000000" d="M 378.5,368.5 C 379.552,368.351 380.552,368.517 381.5,369C 388.833,376.333 396.167,383.667 403.5,391C 415.431,387.359 425.597,390.192 434,399.5C 441.263,412.471 439.43,423.971 428.5,434C 415.529,441.263 404.029,439.43 394,428.5C 389.28,420.574 388.28,412.24 391,403.5C 383.123,395.958 375.623,388.124 368.5,380C 371.656,376.011 374.989,372.177 378.5,368.5 Z M 411.5,406.5 C 420.017,406.545 422.851,410.545 420,418.5C 413.303,423.37 408.803,421.87 406.5,414C 406.831,410.52 408.498,408.02 411.5,406.5 Z"/></g>
</svg>
